<?xml version="1.0" standalone="no"?>
<!DOCTYPE svg PUBLIC "-//W3C//DTD SVG 20010904//EN"
 "http://www.w3.org/TR/2001/REC-SVG-20010904/DTD/svg10.dtd">
<svg version="1.0" xmlns="http://www.w3.org/2000/svg"
 width="530.000000pt" height="530.000000pt" viewBox="0 0 530.000000 530.000000"
 preserveAspectRatio="xMidYMid meet">
<metadata>
Created by potrace 1.14, written by Peter Selinger 2001-2017
</metadata>
<g transform="translate(0.000000,530.000000) scale(0.100000,-0.100000)"
fill="#000000" stroke="none">
<path d="M2588 5275 c-2 -1 -41 -5 -88 -9 -217 -16 -379 -55 -581 -139 -347
-144 -657 -406 -862 -730 -118 -185 -236 -493 -262 -682 -2 -22 -9 -69 -14
-105 -9 -65 -8 -468 2 -525 3 -17 8 -50 11 -75 9 -78 22 -151 52 -300 29 -143
140 -485 203 -630 23 -52 43 -99 45 -105 4 -17 143 -296 184 -370 38 -70 209
-351 224 -370 5 -5 45 -62 89 -125 183 -260 369 -479 614 -726 188 -189 315
-304 358 -322 34 -14 136 -16 171 -2 38 14 164 126 341 304 218 219 212 213
484 541 9 11 34 45 56 75 21 30 42 57 46 60 15 12 207 304 281 429 95 159 216
394 277 536 24 55 49 114 56 130 32 72 127 372 159 500 43 173 58 258 83 455
15 127 8 548 -12 620 -2 8 -6 32 -9 52 -19 125 -91 332 -173 490 -150 294
-358 526 -638 713 -161 107 -378 203 -560 249 -113 29 -158 36 -300 51 -55 6
-233 13 -237 10z m279 -355 c164 -25 309 -69 455 -139 79 -38 224 -126 253
-154 7 -7 23 -19 36 -27 48 -30 235 -228 292 -306 149 -211 236 -428 277 -699
11 -71 15 -320 6 -385 -3 -19 -7 -62 -11 -95 -8 -86 -14 -120 -50 -310 -21
-108 -136 -476 -157 -502 -6 -7 -8 -13 -5 -13 7 0 -84 -210 -156 -360 -94
-195 -389 -681 -451 -742 -9 -9 -16 -19 -16 -22 0 -5 -115 -154 -165 -215
-151 -181 -207 -243 -374 -408 -112 -110 -148 -140 -160 -133 -24 13 -285 273
-366 364 -192 217 -401 497 -554 743 -28 46 -51 87 -51 93 0 5 -4 10 -8 10 -4
0 -13 12 -19 28 -7 15 -26 52 -44 82 -91 158 -215 426 -286 620 -54 146 -112
335 -127 410 -2 14 -14 68 -24 120 -21 100 -29 148 -37 221 -3 24 -7 67 -10
94 -8 72 -8 289 0 360 62 563 429 1052 947 1263 131 53 314 100 423 108 44 4
81 8 83 9 7 6 231 -5 299 -15z"/>
<path d="M2505 4355 c-44 -7 -100 -18 -125 -25 -67 -19 -230 -91 -230 -101 0
-5 -5 -9 -12 -9 -6 0 -45 -26 -86 -57 -270 -207 -409 -545 -368 -898 23 -203
132 -421 287 -574 127 -124 342 -235 500 -256 30 -4 63 -9 74 -12 29 -6 162
-4 225 3 285 32 560 209 713 459 42 68 103 213 112 264 3 19 7 37 9 40 16 27
23 206 12 321 -30 322 -257 634 -562 770 -164 74 -368 102 -549 75z m273 -339
c12 -3 30 -8 40 -10 218 -53 401 -247 451 -480 61 -284 -66 -554 -329 -699
-109 -60 -262 -84 -392 -60 -148 27 -241 75 -348 183 -350 350 -179 942 305
1061 68 17 218 20 273 5z"/>
</g>
</svg>
